<svg width="42" height="42" viewBox="0 0 42 42" fill="none" xmlns="http://www.w3.org/2000/svg">
<path d="M9.92803 0.00324059C10.2116 -0.0284416 10.4676 0.175688 10.4993 0.459295L12.6868 19.9905C12.7186 20.2742 12.5134 20.5301 12.2298 20.5618L2.76104 21.6224C2.47757 21.6539 2.22255 21.4498 2.19073 21.1663L0.00322723 1.6341C-0.0283824 1.35055 0.175716 1.09457 0.459282 1.06281L9.92803 0.00324059ZM23.7913 7.49152C24.075 7.45975 24.3308 7.66392 24.3626 7.94758L25.5501 18.5491C25.5819 18.8327 25.3776 19.0885 25.094 19.1204L15.6253 20.181C15.3417 20.2127 15.0858 20.0085 15.054 19.7249L13.8665 9.12336C13.8347 8.8397 14.0389 8.58384 14.3226 8.55207L23.7913 7.49152ZM36.4085 2.41437C36.6921 2.38265 36.9479 2.58688 36.9798 2.87043L38.5628 17.0032C38.5946 17.2869 38.3894 17.5428 38.1058 17.5745L28.637 18.6351C28.3536 18.6666 28.0986 18.4624 28.0667 18.179L26.4837 4.04621C26.4519 3.76255 26.6561 3.50669 26.9398 3.47492L36.4085 2.41437Z" fill="url(#paint0_linear_1_5917)"/>
<path d="M38.4184 20.3772C38.7021 20.3455 38.9579 20.5496 38.9897 20.8333L41.1772 40.3645C41.2089 40.6482 41.0048 40.9041 40.7211 40.9358L31.2524 41.9964C30.9688 42.0281 30.7129 41.8239 30.6811 41.5403L28.4936 22.0081C28.4621 21.7247 28.6663 21.4697 28.9497 21.4378L38.4184 20.3772ZM12.5444 23.3626C12.8279 23.3309 13.0839 23.5351 13.1157 23.8186L14.6977 37.9514C14.7294 38.2351 14.5253 38.491 14.2417 38.5227L4.7729 39.5833C4.48944 39.6149 4.23353 39.4106 4.20161 39.1272L2.61958 24.9944C2.58782 24.7108 2.79199 24.4549 3.07564 24.4231L12.5444 23.3626ZM25.4321 21.9007C25.7157 21.869 25.9716 22.0731 26.0034 22.3567L27.1909 32.9583C27.2226 33.2419 27.0175 33.4978 26.7338 33.5296L17.2846 34.5882C17.0013 34.6197 16.7453 34.4154 16.7133 34.1321L15.5268 23.5296C15.4952 23.246 15.6993 22.99 15.9829 22.9583L25.4321 21.9007Z" fill="url(#paint1_linear_1_5917)"/>
<defs>
<linearGradient id="paint0_linear_1_5917" x1="-0.000679016" y1="10.8126" x2="38.5654" y2="10.8126" gradientUnits="userSpaceOnUse">
<stop stop-color="#0096FF"/>
<stop offset="1" stop-color="#005A99"/>
</linearGradient>
<linearGradient id="paint1_linear_1_5917" x1="19.9224" y1="39.6677" x2="16.4223" y2="8.94531" gradientUnits="userSpaceOnUse">
<stop stop-color="#0096FF" stop-opacity="0"/>
<stop offset="1" stop-color="#005A99" stop-opacity="0.7"/>
</linearGradient>
</defs>
</svg>
